# xmcd
#
# Track frame offsets: 
#        150
#        20321
#        40798
#        56818
#        73883
#        94037
#        119187
#        136191
#        155360
#        170264
#
# Disc length: 2496 seconds
#
# Revision: 0
# Processed by: cddbd v1.5.2PL0 Copyright (c) Steve Scherf et al.
# Submitted via: ExactAudioCopyFreeDBPlugin 1.0
#
DISCID=8609be0a
DTITLE=Big Sean and Metro Boomin - Double or Nothing
DYEAR=2017
DGENRE=Blues
TTITLE0=Go legend
TTITLE1=Big bidness
TTITLE2=Who's stopping me
TTITLE3=Pull up n wreck
TTITLE4=So good
TTITLE5=Savage times
TTITLE6=Even the odds
TTITLE7=In tune
TTITLE8=Reason
TTITLE9=No hearts, no love
EXTD=
EXTT0=
EXTT1=
EXTT2=
EXTT3=
EXTT4=
EXTT5=
EXTT6=
EXTT7=
EXTT8=
EXTT9=
PLAYORDER=
